HIERARCHY
ROOT Hips
{
	OFFSET -1.602300 6.242603 43.997101
	CHANNELS 6 Xposition Yposition Zposition Zrotation Xrotation Yrotation
	JOINT Chest
	{
		OFFSET -0.204900 1.598101 7.917301
		CHANNELS 6 Xposition Yposition Zposition Zrotation Xrotation Yrotation
		JOINT Chest2
		{
			OFFSET 0.000000 0.000000 3.404099
			CHANNELS 6 Xposition Yposition Zposition Zrotation Xrotation Yrotation
			JOINT Neck
			{
				OFFSET 0.000000 0.000000 7.928600
				CHANNELS 6 Xposition Yposition Zposition Zrotation Xrotation Yrotation
				JOINT Head
				{
					OFFSET 0.000000 0.000000 2.173897
					CHANNELS 6 Xposition Yposition Zposition Zrotation Xrotation Yrotation
					End Site
					{
						OFFSET 0.000000 0.000001 10.404503
					}
				}
			}
			JOINT LeftCollar
			{
				OFFSET 2.833800 -1.396299 4.843300
				CHANNELS 6 Xposition Yposition Zposition Zrotation Xrotation Yrotation
				JOINT LeftShoulder
				{
					OFFSET 4.363600 0.000000 0.000000
					CHANNELS 6 Xposition Yposition Zposition Zrotation Xrotation Yrotation
					JOINT LeftElbow
					{
						OFFSET 0.000000 -0.000001 -10.306900
						CHANNELS 6 Xposition Yposition Zposition Zrotation Xrotation Yrotation
						JOINT LeftWrist
						{
							OFFSET 0.000000 -0.000001 -12.404900
							CHANNELS 6 Xposition Yposition Zposition Zrotation Xrotation Yrotation
							End Site
							{
								OFFSET 0.000000 0.000000 -2.173901
							}
						}
					}
				}
			}
			JOINT RightCollar
			{
				OFFSET -2.354800 -1.897200 5.063099
				CHANNELS 6 Xposition Yposition Zposition Zrotation Xrotation Yrotation
				JOINT RightShoulder
				{
					OFFSET -4.375800 0.000000 0.000000
					CHANNELS 6 Xposition Yposition Zposition Zrotation Xrotation Yrotation
					JOINT RightElbow
					{
						OFFSET 0.000000 -0.000001 -10.005001
						CHANNELS 6 Xposition Yposition Zposition Zrotation Xrotation Yrotation
						JOINT RightWrist
						{
							OFFSET 0.000000 -0.000001 -13.174900
							CHANNELS 6 Xposition Yposition Zposition Zrotation Xrotation Yrotation
							End Site
							{
								OFFSET 0.000000 0.000000 -2.173901
							}
						}
					}
				}
			}
		}
	}
	JOINT LeftHip
	{
		OFFSET 2.240600 0.386800 -2.614101
		CHANNELS 6 Xposition Yposition Zposition Zrotation Xrotation Yrotation
		JOINT LeftKnee
		{
			OFFSET 0.000000 -0.000001 -18.592899
			CHANNELS 6 Xposition Yposition Zposition Zrotation Xrotation Yrotation
			JOINT LeftAnkle
			{
				OFFSET 0.000000 -0.000001 -18.765800
				CHANNELS 6 Xposition Yposition Zposition Zrotation Xrotation Yrotation
				End Site
				{
					OFFSET 0.000000 -8.655000 0.000000
				}
			}
		}
	}
	JOINT RightHip
	{
		OFFSET -2.014900 -0.220900 -2.615898
		CHANNELS 6 Xposition Yposition Zposition Zrotation Xrotation Yrotation
		JOINT RightKnee
		{
			OFFSET 0.000000 -0.000001 -18.633900
			CHANNELS 6 Xposition Yposition Zposition Zrotation Xrotation Yrotation
			JOINT RightAnkle
			{
				OFFSET 0.000000 -0.000001 -18.285101
				CHANNELS 6 Xposition Yposition Zposition Zrotation Xrotation Yrotation
				End Site
				{
					OFFSET 0.000000 -7.524500 0.000000
				}
			}
		}
	}
}
MOTION
Frames: 8
Frame Time: 0.041667
-4.480800 25.783304 8.814003 0.000000 0.000000 10.484800 -0.204900 1.598098 7.917312 -0.334475 3.067053 -4.385291 -0.000001 0.000004 3.404100 2.541020 -16.134351 -1.673310 -0.000000 -0.000001 7.928605 -41.964631 15.803958 14.816950 -0.000001 -0.000003 2.173896 -3.637189 0.731826 -3.739879 2.833796 -1.396299 4.843306 30.431027 -9.683158 -22.859617 4.363596 0.000006 -0.000006 -69.229998 -13.923756 -137.037432 -0.000006 0.000003 -10.306890 264.403699 -158.354999 192.073143 0.000005 0.000002 -12.404901 -516.433772 190.493593 -124.610791 -2.354806 -1.897200 5.063106 7.239417 10.435704 -31.151793 -4.375800 0.000005 -0.000012 72.292211 1.478254 163.028597 0.000001 0.000007 -10.004998 -260.860224 -162.730828 -222.942565 -0.000002 0.000003 -13.174899 -158.674447 -149.550598 179.590344 2.240599 0.386801 -2.614099 143.967397 -45.164342 113.402157 -0.000000 -0.000001 -18.592894 -106.321737 38.665213 129.812759 -0.000002 0.000001 -18.765799 5.995836 30.205518 17.804748 -2.014898 -0.220901 -2.615900 -117.360914 0.403252 -92.114035 -0.000002 -0.000000 -18.633883 189.926906 23.192268 -176.363476 -0.000004 -0.000005 -18.285086 -8.529086 35.394255 -211.829110
-4.474799 25.784803 8.807209 0.000001 0.000003 10.383701 -0.204900 1.598102 7.917310 -0.342466 3.095707 -4.241579 0.000000 0.000004 3.404099 2.507794 -16.140743 -1.679067 0.000000 0.000001 7.928600 -41.926573 15.814311 14.744596 -0.000000 -0.000005 2.173909 -3.643522 0.726037 -3.782181 2.833799 -1.396301 4.843302 30.493844 -9.820134 -22.973533 4.363596 0.000002 -0.000011 -69.318408 -13.984542 -136.861104 -0.000008 0.000002 -10.306890 264.437795 -158.348196 192.075711 0.000007 0.000001 -12.404902 -516.518412 190.534534 -124.587541 -2.354804 -1.897203 5.063103 7.243164 10.426700 -31.139498 -4.375798 0.000004 -0.000014 72.241074 1.472453 163.004486 -0.000001 0.000009 -10.004999 -261.538216 -163.343127 -223.171404 0.000000 0.000005 -13.174895 -157.767056 -149.539342 179.611449 2.240599 0.386803 -2.614102 143.848005 -44.903972 113.253545 0.000000 -0.000000 -18.592896 -106.496788 38.610031 129.822799 -0.000002 -0.000000 -18.765797 6.042086 30.231141 17.821406 -2.014899 -0.220897 -2.615897 -117.394819 0.379628 -92.155918 0.000000 0.000001 -18.633883 189.932097 23.164419 -176.342712 -0.000005 -0.000005 -18.285086 -8.578699 35.393770 -211.787828
-4.471799 25.786205 8.802204 0.000000 0.000003 10.314601 -0.204900 1.598098 7.917306 -0.348400 3.127029 -4.131303 -0.000000 0.000000 3.404102 2.474057 -16.151724 -1.684920 0.000000 -0.000000 7.928596 -41.869056 15.835230 14.660870 0.000003 -0.000001 2.173898 -3.671616 0.722849 -3.840173 2.833796 -1.396301 4.843302 30.567829 -9.945380 -23.024113 4.363598 0.000004 -0.000017 -69.441174 -14.004809 -136.688246 -0.000004 0.000003 -10.306891 264.483639 -158.333675 192.076053 0.000010 -0.000000 -12.404904 -516.584146 190.603655 -124.528228 -2.354805 -1.897201 5.063104 7.280813 10.437945 -31.098172 -4.375798 0.000006 -0.000017 72.177614 1.394180 163.001467 0.000002 0.000008 -10.004993 -262.468051 -164.192256 -223.510277 -0.000004 0.000005 -13.174892 -156.514878 -149.529302 179.625847 2.240599 0.386803 -2.614102 143.768775 -44.718669 113.153995 0.000001 -0.000002 -18.592896 -106.620892 38.580091 129.829151 -0.000003 0.000000 -18.765800 6.077370 30.277993 17.795631 -2.014899 -0.220900 -2.615899 -117.414886 0.357763 -92.178990 -0.000001 0.000002 -18.633888 189.928122 23.150072 -176.330609 -0.000005 -0.000005 -18.285086 -8.619838 35.396721 -211.758732
-4.472399 25.787704 8.799114 0.000000 0.000002 10.279600 -0.204900 1.598098 7.917304 -0.352548 3.159043 -4.054966 -0.000000 0.000002 3.404105 2.444256 -16.163317 -1.689664 -0.000001 0.000001 7.928598 -41.793251 15.871024 14.565235 -0.000001 -0.000001 2.173904 -3.716885 0.716920 -3.906328 2.833797 -1.396300 4.843307 30.608772 -10.015201 -23.023437 4.363597 0.000001 -0.000018 -69.543483 -13.996919 -136.545891 -0.000005 0.000003 -10.306896 264.554182 -158.311245 192.079837 0.000010 -0.000000 -12.404905 -516.604363 190.739111 -124.471059 -2.354807 -1.897200 5.063104 7.359093 10.471763 -31.035376 -4.375799 0.000004 -0.000015 72.127194 1.245594 163.027600 -0.000001 0.000006 -10.004993 -263.580142 -165.264459 -223.924473 0.000001 0.000002 -13.174899 -154.949084 -149.520832 179.573678 2.240601 0.386804 -2.614100 143.732862 -44.626349 113.108568 0.000000 -0.000000 -18.592892 -106.677569 38.576881 129.828741 -0.000001 0.000001 -18.765799 6.099103 30.337948 17.739767 -2.014899 -0.220900 -2.615896 -117.417932 0.333420 -92.185164 -0.000001 0.000002 -18.633884 189.915841 23.151339 -176.330295 -0.000006 -0.000006 -18.285086 -8.646966 35.402691 -211.745372
-4.476100 25.789602 8.798111 0.000001 0.000006 10.275398 -0.204900 1.598102 7.917299 -0.355253 3.191045 -4.008164 0.000000 0.000001 3.404106 2.419924 -16.175186 -1.693373 -0.000000 -0.000002 7.928600 -41.708905 15.918323 14.466165 -0.000002 0.000001 2.173904 -3.770892 0.705088 -3.975631 2.833798 -1.396301 4.843304 30.594688 -10.017612 -23.001620 4.363597 -0.000002 -0.000011 -69.592224 -13.978914 -136.442946 -0.000008 0.000004 -10.306896 264.603140 -158.260182 192.092964 0.000008 -0.000001 -12.404902 -516.634252 190.808329 -124.459352 -2.354805 -1.897202 5.063104 7.459514 10.522124 -30.947877 -4.375800 0.000004 -0.000015 72.084075 1.041666 163.067406 0.000001 0.000008 -10.004993 -264.432850 -166.131675 -224.262636 -0.000002 0.000003 -13.174888 -153.691988 -149.515231 179.470816 2.240600 0.386805 -2.614105 143.734911 -44.621674 113.111218 0.000000 -0.000001 -18.592894 -106.669619 38.594049 129.820818 -0.000002 0.000001 -18.765800 6.105107 30.397170 17.682122 -2.014898 -0.220896 -2.615899 -117.405720 0.307541 -92.175575 -0.000000 0.000004 -18.633883 189.894518 23.167443 -176.339229 -0.000006 -0.000004 -18.285088 -8.662646 35.411512 -211.744976
-4.480599 25.792406 8.797611 -0.000000 -0.000001 10.271700 -0.204901 1.598103 7.917304 -0.358342 3.223241 -3.958740 -0.000000 0.000004 3.404099 2.404684 -16.186864 -1.695541 -0.000001 -0.000001 7.928599 -41.630286 15.972894 14.372549 -0.000002 -0.000001 2.173899 -3.826950 0.685052 -4.041399 2.833798 -1.396303 4.843301 30.515912 -9.946605 -22.978307 4.363599 0.000003 -0.000013 -69.577395 -13.974894 -136.381570 -0.000004 0.000001 -10.306893 264.747175 -158.202303 192.147947 0.000008 0.000004 -12.404903 -516.760037 190.805433 -124.423835 -2.354805 -1.897203 5.063105 7.602133 10.593136 -30.847050 -4.375798 0.000006 -0.000009 72.025137 0.784127 163.142456 0.000003 0.000007 -10.004993 -265.015411 -166.781595 -224.529615 -0.000001 0.000005 -13.174892 -152.775950 -149.495574 179.398347 2.240600 0.386808 -2.614105 143.738531 -44.634859 113.114155 0.000001 -0.000001 -18.592894 -106.643671 38.611671 129.809098 -0.000004 0.000000 -18.765799 6.106931 30.447839 17.636250 -2.014899 -0.220895 -2.615900 -117.388836 0.280234 -92.168704 -0.000001 0.000003 -18.633879 189.878398 23.186001 -176.351687 -0.000005 -0.000005 -18.285086 -8.671858 35.418766 -211.749115
-4.485499 25.795904 8.797314 0.000001 0.000002 10.267300 -0.204901 1.598104 7.917305 -0.361695 3.255921 -3.906800 0.000000 0.000005 3.404104 2.396349 -16.203193 -1.696712 -0.000000 0.000000 7.928600 -41.564146 16.031106 14.293328 -0.000003 -0.000002 2.173899 -3.879890 0.660456 -4.092015 2.833798 -1.396298 4.843302 30.426153 -9.811743 -22.917380 4.363594 0.000002 -0.000011 -69.577122 -13.899838 -136.465172 -0.000005 0.000005 -10.306898 264.772802 -158.207248 192.103742 0.000006 0.000002 -12.404904 -516.804296 190.790912 -124.329237 -2.354803 -1.897198 5.063104 7.790002 10.690233 -30.779609 -4.375802 0.000005 -0.000012 71.950572 0.523147 163.268623 -0.000001 0.000007 -10.005002 -265.311212 -167.201487 -224.727103 -0.000006 0.000003 -13.174894 -152.189455 -149.465849 179.359060 2.240599 0.386809 -2.614107 143.741918 -44.657399 113.114708 0.000000 -0.000001 -18.592892 -106.605927 38.617985 129.796639 -0.000002 0.000001 -18.765802 6.113970 30.475450 17.607249 -2.014899 -0.220892 -2.615904 -117.368714 0.249496 -92.164879 -0.000001 0.000001 -18.633881 189.865476 23.206136 -176.367027 -0.000006 -0.000005 -18.285088 -8.675737 35.425090 -211.756792
-4.490600 25.800007 8.797199 0.000000 0.000001 10.269300 -0.204900 1.598101 7.917305 -0.364418 3.289834 -3.861971 -0.000001 0.000001 3.404102 2.393158 -16.222425 -1.697269 -0.000000 0.000003 7.928605 -41.519928 16.081551 14.236121 0.000000 -0.000003 2.173900 -3.921775 0.634247 -4.125421 2.833799 -1.396298 4.843306 30.332132 -9.639794 -22.842608 4.363596 -0.000001 -0.000010 -69.469772 -13.861905 -136.584659 -0.000005 0.000000 -10.306890 264.762475 -158.226974 192.140325 0.000006 0.000002 -12.404903 -516.807848 190.788412 -124.254392 -2.354805 -1.897200 5.063108 7.932993 10.770107 -30.777734 -4.375800 0.000005 -0.000015 71.891798 0.366858 163.386704 0.000004 0.000007 -10.004996 -265.388667 -167.437880 -224.849022 -0.000004 0.000007 -13.174891 -151.900976 -149.422710 179.349976 2.240600 0.386803 -2.614105 143.750388 -44.693380 113.119885 0.000000 -0.000001 -18.592896 -106.552679 38.608887 129.782378 -0.000001 -0.000000 -18.765799 6.131886 30.477981 17.589504 -2.014896 -0.220896 -2.615897 -117.345273 0.219216 -92.161143 -0.000001 0.000000 -18.633884 189.852649 23.228937 -176.384854 -0.000006 -0.000008 -18.285084 -8.674110 35.430732 -211.767625
